<svg xmlns="http://www.w3.org/2000/svg" version="1.1" xmlns:xlink="http://www.w3.org/1999/xlink" xmlns:svgjs="http://svgjs.dev/svgjs" width="1000" height="1000"><g clip-path="url(#SvgjsClipPath1096)"><rect width="1000" height="1000" fill="#212121"></rect><g transform="matrix(1.953125,0,0,1.953125,0,0)"><svg xmlns="http://www.w3.org/2000/svg" version="1.1" xmlns:xlink="http://www.w3.org/1999/xlink" xmlns:svgjs="http://svgjs.dev/svgjs" width="512" height="512"><svg xmlns="http://www.w3.org/2000/svg" xml:space="preserve" id="Layer_1" x="0" y="0" version="1.1" viewBox="0 0 512 512"><path fill="#52D2A9" d="M222 222c-19 13-35 30-51 47-26 30-45 63-57 100l-2 2-3-6-26-41c-2-5-2-8 0-12 13-29 28-56 44-82 13-21 31-36 47-52a133 133 0 0 1 54-33c14-3 23 2 29 14l23 47 3 5 3-4c19-26 43-46 72-59 10-5 22-7 34-5 7 1 12 4 15 10l14 22c13 20 14 42 10 65-6 26-16 50-31 71-10 14-23 25-37 35-12 8-23 17-38 22-10 3-20 4-30 2-11-2-20-7-26-15a80 80 0 0 1-17-44l2 5c16 32 28 36 60 29 18-3 34-13 48-25 21-18 40-38 51-64 6-16 10-33 11-50 1-4-1-5-5-5-16 0-31 5-44 13l-19 13c-36 26-57 62-70 103l-3 9-1 1-2-4-26-47c-1-2-2-5-1-8 3-18 12-35 20-51 4-7 4-14 2-20-1-7-5-9-11-8-16 4-29 11-42 20z"></path></svg></svg></g></g><defs><clipPath id="SvgjsClipPath1096"><rect width="1000" height="1000" x="0" y="0" rx="250" ry="250"></rect></clipPath></defs></svg>